<?xml version="1.0" encoding="UTF-8"?>
<svg id="a" data-name="Layer 1" xmlns="http://www.w3.org/2000/svg" viewBox="0 0 140.22 526.15">
  <defs>
    <style>
      .b {
        fill: #fff;
      }
    </style>
  </defs>
  <path class="b" d="M135.3,264.15c-3.15,12.84-5.97,24.54-8.63,35.76-7.16,30.38-15.4,65.69-23.2,102.38-4.83-10.08-8.59-21.1-12.04-31.68-1.28-3.94-1.9-8.04-1.84-12.21l3.33-219.42c.08.1.16.21.24.32,8.96,11.69,17.41,36.31,17.49,36.55l2.6,7.71,2.22-7.65,10.56-36.76c2.12,9.9,5.27,19.54,9.41,28.77l4.78,10.67v-32.46l-.16-.43c-2-5.27-3.66-10.66-4.98-16.1-.01-.06-.03-.11-.04-.17-2.18-8.99-3.4-18.19-3.7-27.44L128.07.08l-5.31,15.69c-5.11,15.1-22.9,58.48-37.36,60.51h-.62c-14.56-.28-32.94-44.96-38.23-60.6L41.25,0l-3.61,112.38c-.38,4.76-1.14,9.53-2.23,14.26-2.2,10.05-5.78,20.4-10.49,30.21-6.05,12.48-13.75,23.28-22.89,32.11l-.5.49-1.52,5.79.21.69c4.8,15.35,9.73,31.89,15.98,53.63,16.73,58.32,30.27,108.77,42.61,158.78l.08.31,1.62,7.49s0-.01.01-.02l24.1,110.03,24.69-109.76-.02-.02,1.95-8.52h0c9.48-38.4,19.48-75.31,28.9-109.83l.09-.32v-53.65l-4.93,20.12ZM78.18,370.98l-.44,1.33c-3.33,10.08-6.74,20.43-11.28,30.01-2.22-10.29-4.43-19.98-6.75-30.16-1.37-5.99-2.75-12.04-4.14-18.3-8.24-37.02-16.82-73.37-25.52-108.06-5.02-19.94-9.03-35.33-12.94-49.64,12.68-15.75,21.68-34.8,26.34-55.65l12.55,43.21,2.56-7.5c.09-.25,8.65-25.19,17.63-36.91l3.96,218.76c.06,3.58-.83,9.49-1.96,12.9Z"/>
</svg>